<svg height="512" viewBox="0 0 58 57" width="512" xmlns="http://www.w3.org/2000/svg"><g id="036---Au-Pairing" transform="translate(-1)"><circle id="Oval" cx="30" cy="20" r="5"/><path id="Shape" d="m22 44h7.5c.8284271 0 1.5-.6715729 1.5-1.5s-.6715729-1.5-1.5-1.5h-11.358c.4545933 1.7606851 2.0395884 2.9931852 3.858 3z"/><path id="Shape" d="m20.321 39c-.5729231-1.3035539-.961975-2.6803803-1.156-4.091-.4106327-.091924-.8039291-.2489049-1.165-.465v.7c.0173144.8503523-.512255 1.6160919-1.314 1.9-.4405685.1524463-.7225559.5832375-.686 1.048.0880004.5401578.5651542.9297762 1.112.908z"/><path id="Shape" d="m27.6 39c-1.0699017-2.1407636-2.6773551-3.9670236-4.665-5.3-.4793249.5190253-1.0881692.9011061-1.764 1.107.2085165 1.4732189.6828818 2.896315 1.4 4.2z"/><path id="Shape" d="m43.313 37.051c-.8011094-.2851433-1.3299583-1.0508263-1.313-1.901 0-2.227.184-3.645-.977-5.421l-1.623 2.847c-.5.861-.4 1.024-.4 6.424h4c.4902166-.001112.9073498-.357418.9850805-.841434.0777306-.484016-.2068625-.9530158-.6720805-1.107566z"/><path id="Shape" d="m41.871 41h-5.036c.7754934.8013778 1.1882948 1.8857948 1.142 3 1.8318123.0096183 3.4360659-1.2263244 3.894-3z"/><path id="Shape" d="m27.426 29.371c.1503094.380747.5186601.6304157.928.629h3.292c.4093399.0014157.7776906-.248253.928-.629l.949-2.371h-7.046z"/><path id="Shape" d="m21.769 27.431c1.6757049.8155349 2.5547238 2.6902197 2.11 4.5 2.4493571 1.6043519 4.4042073 3.8583503 5.646 6.51l1.271-.913c1.3501332-.9169805 3.1856248-.5864054 4.131.744l.509.728h1.564c0-7.252-.458-5.453 2.591-10.8-1.1248885-.8440349-2.5093372-1.2684954-3.914-1.2l-1.245 3.114c-.4526602 1.1416103-1.5579281 1.8898283-2.786 1.886h-3.292c-1.2280719.0038283-2.3333398-.7443897-2.786-1.886l-1.245-3.114c-.8722333-.0385639-1.7427257.1083359-2.554.431z"/><circle id="Oval" cx="20" cy="31" r="2"/><path id="Shape" d="m24 53h12c.5522847 0 1-.4477153 1-1v-5.927c-.660423.6579533-1.5764295.9927523-2.5054781.9157487-.9290487-.0770036-1.7774349-.5580433-2.3205219-1.3157487l-.387-.524c-.6355611.5488358-1.4472628.8508725-2.287.851h-6.5v6c0 .2652165.1053568.5195704.2928932.7071068s.4418903.2928932.7071068.2928932z"/><path id="Shape" d="m33.778 44.477c.2259932.3300453.6015814.5257851 1.0015667.5219719s.7717735-.206678.9914333-.5409719c.3061618-.4540366.3029873-1.0492548-.008-1.5l-2.474-3.535c-.3006271-.4415471-.9021041-.5561142-1.344-.256l-.554.4c1.2434841.7938739 1.8488294 2.2873801 1.509 3.723z"/><path id="Shape" d="m40.18 45.572c-.3806179.1528464-.7760689.2657845-1.18.337v6.091c0 1.6568542-1.3431458 3-3 3h-12c-1.6568542 0-3-1.3431458-3-3v-6.09c-.4045575-.0679004-.8010023-.1774841-1.183-.327l-2.783 10.142c-.086986.2943548-.033105.6123863.1459831.8616628.179088.2492765.4632939.4018353.7700169.4133372h24.1c.3066454-.0111914.5908923-.1635207.770021-.4126584.1791288-.2491376.2330157-.5670946.145979-.8613416z"/><path id="Shape" d="m57.812 12.172-27-12c-.5174703-.22896599-1.1075297-.22896599-1.625 0l-27 12c-1.00957649.4487314-1.4642313 1.6309235-1.01549995 2.6405s1.63092343 1.4642313 2.64049995 1.0155l25.376-11.279c.5169726-.2296718 1.1070274-.2296718 1.624 0l25.375 11.279c1.0095765.4487314 2.1917686-.0059235 2.6405-1.0155s-.0059235-2.1917686-1.0155-2.6405z"/></g></svg>